<?xml version="1.0" encoding="UTF-8" standalone="no"?>
<svg
   xmlns:dc="http://purl.org/dc/elements/1.1/"
   xmlns:cc="http://creativecommons.org/ns#"
   xmlns:rdf="http://www.w3.org/1999/02/22-rdf-syntax-ns#"
   xmlns:svg="http://www.w3.org/2000/svg"
   xmlns="http://www.w3.org/2000/svg"
   xmlns:sodipodi="http://sodipodi.sourceforge.net/DTD/sodipodi-0.dtd"
   xmlns:inkscape="http://www.inkscape.org/namespaces/inkscape"
   width="60px"
   height="47px"
   viewBox="0 0 60 47"
   version="1.1"
   id="SVGRoot"
   sodipodi:docname="final dragon.svg"
   inkscape:version="1.0.2-2 (e86c870879, 2021-01-15)">
  <defs
     id="defs1785" />
  <sodipodi:namedview
     id="base"
     pagecolor="#ffffff"
     bordercolor="#666666"
     borderopacity="1.0"
     inkscape:pageopacity="0"
     inkscape:pageshadow="2"
     inkscape:zoom="181.01934"
     inkscape:cx="40.410346"
     inkscape:cy="34.932428"
     inkscape:document-units="px"
     inkscape:current-layer="layer1"
     inkscape:document-rotation="0"
     showgrid="false"
     inkscape:window-width="1440"
     inkscape:window-height="837"
     inkscape:window-x="-8"
     inkscape:window-y="-8"
     inkscape:window-maximized="1"
     inkscape:pagecheckerboard="false" />
  <metadata
     id="metadata1788">
    <rdf:RDF>
      <cc:Work
         rdf:about="">
        <dc:format>image/svg+xml</dc:format>
        <dc:type
           rdf:resource="http://purl.org/dc/dcmitype/StillImage" />
        <dc:title></dc:title>
      </cc:Work>
    </rdf:RDF>
  </metadata>
  <g
     inkscape:label="Слой 1"
     inkscape:groupmode="layer"
     id="layer1"
     style="display:inline">
    <path
       style="display:inline;fill:#000000;stroke:none;stroke-width:1px;stroke-linecap:butt;stroke-linejoin:miter;stroke-opacity:1"
       d="m 53.910156,15.148724 1.164062,0.300781 0.402344,-0.609375 z"
       id="path868"
       sodipodi:nodetypes="cccc" />
    <path
       style="display:inline;fill:#000000;stroke:none;stroke-width:1px;stroke-linecap:butt;stroke-linejoin:miter;stroke-opacity:1"
       d="m 56.039062,14.726849 0.910157,0.507812 0.8125,-0.851562 z"
       id="path870"
       sodipodi:nodetypes="cccc" />
    <path
       style="display:inline;fill:#000000;stroke:none;stroke-width:1px;stroke-linecap:butt;stroke-linejoin:miter;stroke-opacity:1"
       d="m 58.164062,14.301067 0.804688,0.5 0.564074,-0.769417 z"
       id="path872"
       sodipodi:nodetypes="cccc" />
    <path
       style="display:inline;fill:#000000;stroke:none;stroke-width:1px;stroke-linecap:butt;stroke-linejoin:miter;stroke-opacity:1"
       d="m 53.066406,17.012005 0.613281,-0.523438 0.484375,0.570313 z"
       id="path874"
       sodipodi:nodetypes="cccc" />
    <path
       style="display:inline;fill:#000000;stroke:none;stroke-width:1px;stroke-linecap:butt;stroke-linejoin:miter;stroke-opacity:1"
       d="m 54.585937,17.078411 0.570312,-0.429687 0.691406,0.484375 z"
       id="path876"
       sodipodi:nodetypes="cccc" />
    <path
       style="display:inline;fill:#000000;stroke:none;stroke-width:1px;stroke-linecap:butt;stroke-linejoin:miter;stroke-opacity:1"
       d="m 56.46875,17.156536 0.734375,-0.585937 0.582031,0.640624 z"
       id="path878"
       sodipodi:nodetypes="cccc" />
    <path
       style="display:inline;fill:none;stroke:none;stroke-width:1px;stroke-linecap:butt;stroke-linejoin:miter;stroke-opacity:1"
       d="m 58.265625,17.066692 0.726562,-0.578125 0.921875,0.71875 z"
       id="path880" />
    <path
       style="display:inline;fill:#000000;stroke:none;stroke-width:1px;stroke-linecap:butt;stroke-linejoin:miter;stroke-opacity:1"
       d="m 29.000284,45.427824 1.179403,0.716993 H 12.765625 l 0.976562,-0.734375 -1.155636,-6.557277 2.474445,6.207472 z"
       id="path884"
       sodipodi:nodetypes="ccccccc" />
    <path
       style="display:inline;fill:#000000;stroke:none;stroke-width:1px;stroke-linecap:butt;stroke-linejoin:miter;stroke-opacity:1"
       d="M 0.577796,14.407301 0,14.637005 l 13.609375,-1.90625 3.519139,2.880837 7.293361,-0.08396 3.346386,4.381845 6.216114,0.82128 2.648437,5.167969 3.597707,-1.505428 1.562751,2.552524 0.578125,-1.658035 -3.097958,-9.002345 -0.46875,-0.675781 L 47.664062,5.644818 47.34306,4.0799066 32.961077,12.904698 27.768261,19.909475 32.751154,12.341222 46.650222,3.1709326 29.966922,6.7727578 17.128514,15.611592 29.679659,6.2424276 43.070494,2.8836704 30.000067,1.7567184 Z"
       id="path886"
       sodipodi:nodetypes="ccccccccccccccccccccccccc" />
    <path
       style="display:inline;fill:#000000;stroke:none;stroke-width:1px;stroke-linecap:butt;stroke-linejoin:miter;stroke-opacity:1"
       d="m 45.855703,24.9771 -5.509107,-9.247766 8.872154,-12.0298285 4.617187,0.03125 -10.284831,12.5658455 0.03315,0.408797 5.013405,8.283169 z"
       id="path888"
       sodipodi:nodetypes="cccccccc" />
    <path
       style="display:inline;fill:#000000;fill-opacity:1;stroke:none;stroke-width:0;stroke-miterlimit:4;stroke-dasharray:none"
       d="m 49.511798,14.385203 -2.972061,0.696059 2.115796,0.792929 z"
       id="path890"
       sodipodi:nodetypes="cccc" />
    <path
       style="display:inline;fill:#000000;fill-opacity:1;stroke:none;stroke-width:0;stroke-miterlimit:4;stroke-dasharray:none"
       d="m 48.495329,16.158495 -1.856156,1.193242 0.850741,0.546903 z"
       id="path892" />
    <path
       style="display:inline;fill:#000000;fill-opacity:1;stroke:none;stroke-width:0;stroke-miterlimit:4;stroke-dasharray:none"
       d="m 47.467814,18.517359 -0.475627,0.904802 1.007812,0.488281 z"
       id="path894"
       sodipodi:nodetypes="cccc" />
    <path
       style="display:inline;fill:#000000;fill-opacity:1;stroke:none;stroke-width:0;stroke-miterlimit:4;stroke-dasharray:none"
       d="m 48.078125,20.12138 -0.558594,1.050781 1.144531,0.484375 z"
       id="path896"
       sodipodi:nodetypes="cccc" />
    <path
       style="display:inline;fill:#000000;fill-opacity:1;stroke:none;stroke-width:0;stroke-miterlimit:4;stroke-dasharray:none"
       d="M 48.734375,21.836224 48.160156,22.906536 49.25,23.187786 Z"
       id="path898"
       sodipodi:nodetypes="cccc" />
    <path
       style="display:inline;fill:#000000;fill-opacity:1;stroke:none;stroke-width:0;stroke-miterlimit:4;stroke-dasharray:none"
       d="M 49.953736,25.047048 48.792969,24.355755 49.304687,23.34013 Z"
       id="path900"
       sodipodi:nodetypes="cccc" />
    <path
       style="display:inline;fill:#000000;fill-opacity:1;stroke:none;stroke-width:0;stroke-miterlimit:4;stroke-dasharray:none"
       d="M 36.358504,25.417174 35.038203,24.84265 34.41396,26.129805 Z"
       id="path902" />
    <path
       style="display:inline;fill:#000000;fill-opacity:1;stroke:none;stroke-width:0;stroke-miterlimit:4;stroke-dasharray:none"
       d="M 34.218992,26.200002 32.729057,25.715485 32.049572,27.00264 Z"
       id="path904"
       sodipodi:nodetypes="cccc" />
    <path
       style="display:inline;fill:#000000;fill-opacity:1;stroke:none;stroke-width:0;stroke-miterlimit:4;stroke-dasharray:none"
       d="M 31.80165,27.096553 30.276281,26.62699 29.685184,27.880999 Z"
       id="path906"
       sodipodi:nodetypes="cccc" />
    <path
       style="display:inline;fill:#000000;fill-opacity:1;stroke:none;stroke-width:0;stroke-miterlimit:4;stroke-dasharray:none"
       d="M 29.508407,27.947291 28.011329,27.527446 27.342892,28.74831 Z"
       id="path908" />
    <path
       style="display:inline;fill:#000000;fill-opacity:1;stroke:none;stroke-width:0;stroke-miterlimit:4;stroke-dasharray:none"
       d="m 27.086095,28.84317 -1.406008,-0.431841 -0.718156,1.21534 z"
       id="path910"
       sodipodi:nodetypes="cccc" />
    <path
       style="display:inline;fill:#000000;fill-opacity:1;stroke:none;stroke-width:0;stroke-miterlimit:4;stroke-dasharray:none"
       d="m 24.851446,29.676388 -1.497078,-0.353554 -0.707107,1.182194 z"
       id="path912" />
    <path
       style="display:inline;fill:#000000;fill-opacity:1;stroke:none;stroke-width:0;stroke-miterlimit:4;stroke-dasharray:none"
       d="m 22.564397,30.521601 -1.276107,-0.425369 -0.552427,1.09933 z"
       id="path914" />
    <path
       style="display:inline;fill:#000000;fill-opacity:1;stroke:none;stroke-width:0;stroke-miterlimit:4;stroke-dasharray:none"
       d="m 20.455367,31.297803 -1.067426,-0.06909 -0.281738,1.375544 z"
       id="path916" />
    <path
       style="display:inline;fill:#000000;fill-opacity:1;stroke:none;stroke-width:0;stroke-miterlimit:4;stroke-dasharray:none"
       d="m 19.017815,32.676067 -1.033039,0.0055 -0.186041,1.170055 z"
       id="path918"
       sodipodi:nodetypes="cccc" />
    <path
       style="display:inline;fill:#000000;fill-opacity:1;stroke:none;stroke-width:0;stroke-miterlimit:4;stroke-dasharray:none"
       d="m 17.526261,34.123426 -1.077233,0.07734 0.01105,0.961223 z"
       id="path920" />
    <path
       style="display:inline;fill:#000000;fill-opacity:1;stroke:none;stroke-width:0;stroke-miterlimit:4;stroke-dasharray:none"
       d="m 50.966512,19.084626 1.556336,-0.243298 0.568675,0.736691 -1.911465,0.09375 z"
       id="path924"
       sodipodi:nodetypes="ccccc" />
    <path
       style="display:inline;fill:#000000;fill-opacity:1;stroke:none;stroke-width:0;stroke-miterlimit:4;stroke-dasharray:none"
       d="m 52.677202,22.610844 2.08942,-0.33587 -1.918167,0.739142 z"
       id="path926"
       sodipodi:nodetypes="cccc" />
    <path
       style="display:inline;fill:#000000;fill-opacity:1;stroke:none;stroke-width:0;stroke-miterlimit:4;stroke-dasharray:none"
       d="m 54.124562,26.295533 3.204375,-0.02112 -3.237521,0.402323 z"
       id="path928"
       sodipodi:nodetypes="cccc" />
    <path
       style="display:inline;fill:#000000;fill-opacity:1;stroke:none;stroke-width:0;stroke-miterlimit:4;stroke-dasharray:none"
       d="m 53.721295,30.361397 3.320082,-0.07734 -3.679165,0.519282 z"
       id="path930" />
    <path
       style="display:inline;fill:#000000;fill-opacity:1;stroke:none;stroke-width:0;stroke-miterlimit:4;stroke-dasharray:none"
       d="m 57.5,30.191692 -2.953125,4.753907 -0.919498,4.188342 2.226906,2.226906 2.848842,0.135533 L 54.84375,41.793255 47.765625,42.34013 25,42.3245 l -7.9375,-0.554688 -0.140625,-0.40625 6.8125,-0.539062 h 7.585937 l 0.101563,-0.304688 -0.851563,-1.351562 -0.01563,-4.140625 -6.914062,-0.04687 -6.1875,4.453125 6.1875,-5.023438 0.210937,-1.164062 0.25,1.15625 h 3.421875 l 0.15625,-0.171875 v -1.085938 h 0.351563 l 0.01563,1.15625 0.164062,0.140625 h 2.359375 l 0.01533,-1.351302 1.07799,5.912081 1.442973,2.234026 0.376301,0.09375 -0.536017,-0.936445 0.61428,-0.20044 0.963119,1.038563 0.401726,0.21875 -0.375975,-0.789808 0.111265,-0.506012 1.492799,1.387674 h 0.82864 l -0.705402,-0.678962 0.941406,-0.02344 0.06641,-0.296875 -0.800781,-1.296875 0.164062,-4.179688 -0.101562,-0.109375 -0.820313,-0.0039 0.179688,-0.535156 h 2.78125 l 0.02734,-1.582031 0.199218,0.0039 V 34.387 l 0.101563,0.04687 h 2.761719 l 0.15625,-1.636719 0.222656,1.660156 h 2.078125 l 0.184041,4.488802 1.73083,2.468726 0.612112,0.03906 -0.67886,-1.095141 0.551551,-0.0625 1.037223,1.032091 0.68321,0.02477 -0.365712,-0.727863 0.314165,-0.08783 0.933994,0.817587 0.591355,0.101563 -0.347812,-0.432858 1.132812,-0.0078 0.109375,-0.164062 -0.960937,-1.578125 0.158872,-4.282987 h -1.40464 l -0.125,-0.557951 3.584669,-0.01657 -0.333975,-2.486287 0.44257,-0.28125 0.167619,2.795158 h 2.15999 z"
       id="path932"
       sodipodi:nodetypes="cccccccccccccccccccccccccccccccccccccccccccccccccccccccccccccccccccccccccccccccc" />
    <path
       style="display:inline;fill:#ffc404;fill-opacity:1;stroke:none;stroke-width:0;stroke-miterlimit:4;stroke-dasharray:none"
       d="M 53.091523,19.578019 57.46875,26.148724 57.5,30.191692 54.411824,34.44385 h -2.15999 l -0.198869,-1.927971 -0.944656,-1.425278 5.933068,-0.806544 -3.320082,0.07734 -1.662811,-3.463694 4.911078,-0.60767 -4.612767,0.04969 -1.102807,-0.722061 0.13744,-2.240269 2.519729,-0.996954 -2.737857,0.351495 -0.278395,-3.157825 z"
       id="path934"
       sodipodi:nodetypes="cccccccccccccccccc" />
    <path
       style="display:inline;fill:#ffc404;fill-opacity:1;stroke:none;stroke-width:0;stroke-miterlimit:4;stroke-dasharray:none"
       d="m 48.655532,34.432799 0.132584,-2.264969 2.938907,-0.110462 0.248593,2.358865 z"
       id="path936"
       sodipodi:nodetypes="ccccc" />
    <path
       style="display:inline;fill:#ffc404;fill-opacity:1;stroke:none;stroke-width:0;stroke-miterlimit:4;stroke-dasharray:none"
       d="m 44.472653,34.465125 -0.171632,-1.945142 -2.40649,-0.02361 0.261718,1.960937 z"
       id="path938"
       sodipodi:nodetypes="ccccc" />
    <path
       style="display:inline;fill:#ffc404;fill-opacity:1;stroke:none;stroke-width:0;stroke-miterlimit:4;stroke-dasharray:none"
       d="m 41.961212,32.587234 -0.183871,1.846641 h -2.761719 l -0.101563,-0.04687 0,-1.839659 z"
       id="path940"
       sodipodi:nodetypes="cccccc" />
    <path
       style="display:inline;fill:#ffc404;fill-opacity:1;stroke:none;stroke-width:0;stroke-miterlimit:4;stroke-dasharray:none"
       d="m 38.714841,32.836232 -0.02734,1.582031 h -2.78125 l 0.501971,-1.54884 z"
       id="path942" />
    <path
       style="display:inline;fill:#ffc404;fill-opacity:1;stroke:none;stroke-width:0;stroke-miterlimit:4;stroke-dasharray:none"
       d="m 30.570312,34.441697 0.01533,-1.351307 -2.5544,0.05443 0.01563,1.15625 0.164062,0.140625 h 2.359375 z"
       id="path944" />
    <path
       style="display:inline;fill:#ffc404;fill-opacity:1;stroke:none;stroke-width:0;stroke-miterlimit:4;stroke-dasharray:none"
       d="m 27.679682,34.23076 v -1.085938 l -3.828125,0.101563 0.25,1.15625 h 3.421875 z"
       id="path946" />
    <path
       style="display:inline;fill:#ffc404;fill-opacity:1;stroke:none;stroke-width:0;stroke-miterlimit:4;stroke-dasharray:none"
       d="m 23.851557,33.246385 -0.226495,-0.01236 -7.004776,6.640174 0.832834,-0.44031 6.1875,-5.023438 z"
       id="path948" />
  </g>
  <g
     inkscape:groupmode="layer"
     id="layer2"
     inkscape:label="красное тело">
    <path
       style="display:inline;fill:#e70046;fill-opacity:1;stroke:#000000;stroke-width:0;stroke-linecap:butt;stroke-linejoin:miter;stroke-miterlimit:4;stroke-dasharray:none;stroke-opacity:1"
       d="m 24.716897,42.603974 4.63495,3.034788 H 14.404746 l -1.818195,-6.785597 7.868816,-7.555362 19.993902,-7.404507 1.265876,2.583774 V 25.037787 L 37.867187,15.99638 v -0.480469 l 8.960938,-10.0039055 -0.0625,-0.3125 L 33.31463,13.34664 27.768261,19.909475 32.198727,11.965572 45.412785,3.6570685 30.276281,7.2146995 17.128514,15.611592 29.326106,5.6900005 41.391115,2.9057675 30.088455,2.3091455 0.577796,14.407301 29.867484,5e-7 51.831989,2.1434175 41.159096,15.666834 l 5.259107,8.794641 3.292465,0.795495 0.243068,-0.209922 -2.485922,-6.529689 0.0221,-0.618719 2.021884,-3.513437 8.617864,-2.695844 1.425262,2.088175 -0.0221,0.254116 -5.76734,1.149049 -1.005418,1.458407 0.110486,0.364602 7.071068,0.298311 0.03315,1.182194 -8.750446,0.662913 2.927864,6.960582 -0.430893,4.253689 -1.66833,2.154466 -3.049398,0.04419 v 2.519068 l -1.37002,4.032719 2.585359,2.430679 h -1.005417 l -0.894932,-0.817592 -0.165728,0.03315 0.475087,0.751301 -0.972272,0.0221 -1.06066,-1.016466 H 46.28562 l 0.850738,1.071708 h -1.049612 l -1.66833,-2.640601 -0.254116,-6.176136 -7.756078,0.09944 -2.010835,6.198233 2.585359,2.474873 h -0.82864 l -1.149049,-0.950174 -0.03314,0.287262 0.563475,0.696058 h -1.104854 l -0.994369,-1.038563 -0.176777,0.04419 0.629767,0.98332 h -0.751301 l -2.099223,-2.452776 -0.45299,-6.021456 -6.960583,0.143631 -7.004776,6.640174 0.441942,2.784233 7.535106,1.679379 -0.01105,-1.679379 z"
       id="path28" />
  </g>
  <g
     inkscape:groupmode="layer"
     id="layer3"
     inkscape:label="глазки и нос">
    <path
       style="display:inline;fill:#000000;stroke:none;stroke-width:1px;stroke-linecap:butt;stroke-linejoin:miter;stroke-opacity:1"
       d="m 51.246416,14.517786 0.464039,0.386699 0.740252,-0.03315 1.082758,-0.883883 z"
       id="path864" />
    <path
       style="display:inline;fill:#000000;stroke:none;stroke-width:1px;stroke-linecap:butt;stroke-linejoin:miter;stroke-opacity:1"
       d="m 57.757812,12.910442 v 0.179688 h 0.578125 L 58.125,12.879192 Z"
       id="path866" />
  </g>
</svg>
