<?xml version="1.0" encoding="utf-8"?>
<!DOCTYPE svg PUBLIC "-//W3C//DTD SVG 20010904//EN" "http://www.w3.org/TR/2001/REC-SVG-20010904/DTD/svg10.dtd">
<svg version="1.0" xmlns="http://www.w3.org/2000/svg" width="84px" height="94px" viewBox="0 0 84 94" preserveAspectRatio="xMidYMid meet">
 <g fill="#feffff">
  <path d="M0 47 l0 -47 42 0 42 0 0 47 0 47 -42 0 -42 0 0 -47z m31.4 -0.5 c3.3 -3 3.3 -5.5 0.1 -8.5 -2.1 -2 -3 -2.2 -5.2 -1.4 -1.5 0.5 -3.4 2.2 -4.3 3.7 -1.5 2.7 -1.4 2.9 1.8 5.8 3.9 3.5 4.2 3.5 7.6 0.4z m27.7 -0.5 c2.7 -2.6 2.9 -3.2 1.8 -5.2 -2.7 -5 -6 -6 -9.6 -2.6 -3 2.8 -2.9 5.3 0.2 8.3 3.1 3.2 4 3.1 7.6 -0.5z"/>
 </g>
 <g fill="#0e1235">
  <path d="M22 81.1 c-3.3 -0.9 -5 -4.5 -5 -10.9 0 -4.8 -0.4 -5.9 -4 -9.9 -5.8 -6.7 -8.3 -14 -7.8 -23.8 0.4 -9.6 3.1 -15.8 9.5 -22.3 17.8 -17.7 48.4 -13.1 60 9 2.5 4.7 2.8 6.4 2.8 14.8 0 10.7 -1.6 15.3 -8.1 22.9 -3.3 3.8 -3.7 4.8 -3.8 10.7 -0.3 10 -0.1 9.9 -22.4 10.1 -10.3 0.1 -19.8 -0.2 -21.2 -0.6z m6 -10.6 c0 -4.8 0.2 -5.5 2 -5.5 1.8 0 2 0.7 2 5.5 0 4.8 0.2 5.5 2 5.5 1.8 0 2 -0.7 2 -5.3 0 -5.9 0.6 -7.2 2.7 -5.6 0.7 0.7 1.3 3.2 1.3 6 0 3.7 0.4 4.9 1.5 4.9 1.2 0 1.5 -1.3 1.5 -5.5 0 -4.8 0.2 -5.5 2 -5.5 1.8 0 2 0.7 2 5.5 0 4.8 0.2 5.5 2 5.5 1.7 0 2 -0.7 2 -5.3 0 -5.9 0.6 -7.2 2.7 -5.6 0.7 0.7 1.3 3.2 1.3 6 0 4.6 0.2 4.9 2.5 4.9 2.4 0 2.5 -0.2 2.5 -6.5 0 -6.2 0.2 -6.7 4 -10.5 11.2 -11.2 12 -27.9 1.8 -39.4 -12.8 -14.7 -34.4 -15.2 -47.6 -1.2 -6.4 6.8 -8.6 12.5 -8 21.3 0.5 8.1 2.7 13.1 8.2 18.7 3.7 3.8 4 4.6 4.3 10.1 0.1 3.3 0.2 6.3 0.3 6.8 0 0.4 1.1 0.7 2.5 0.7 2.4 0 2.5 -0.3 2.5 -5.5z"/>
  <path d="M25.5 56 c-0.6 -1 0.1 -1.4 4.8 -2.4 1.9 -0.5 2.7 -0.2 2.7 0.8 0 2.1 -6.3 3.5 -7.5 1.6z"/>
  <path d="M51.8 56.3 c-1 -0.2 -1.8 -1.1 -1.8 -1.9 0 -1 0.7 -1.3 2.8 -0.8 4.6 1 5.3 1.4 4.7 2.4 -0.6 1 -2.6 1.1 -5.7 0.3z"/>
  <path d="M39.4 54.5 c-0.4 -0.9 -0.2 -2.1 0.4 -2.7 1.5 -1.5 4.4 -0.1 4 1.9 -0.4 2.3 -3.6 2.9 -4.4 0.8z"/>
  <path d="M21.1 49.4 c-2.5 -2.1 -3.1 -3.3 -3.1 -6.6 0 -5.3 1.4 -7.7 5.7 -9.4 8.3 -3.5 16.1 3.6 13.3 12 -2.2 6.8 -10.3 8.8 -15.9 4z"/>
  <path d="M49.7 50.9 c-0.9 -0.5 -2.4 -2.4 -3.3 -4.1 -4.3 -8.4 4.3 -17.4 12.9 -13.3 9.4 4.4 6.4 18.6 -4 18.5 -2.1 0 -4.6 -0.5 -5.6 -1.1z"/>
  <path d="M25 17.4 c0 -0.8 1.9 -2.4 4.3 -3.4 4.5 -2.1 10.7 -2.7 10.7 -1 0 0.6 -1 1 -2.2 1 -1.3 0 -4.7 1.1 -7.5 2.5 -4.3 1.9 -5.3 2.1 -5.3 0.9z"/>
 </g>
</svg>