<?xml version="1.0" encoding="UTF-8" standalone="no"?>
<svg
   xmlns:dc="http://purl.org/dc/elements/1.1/"
   xmlns:cc="http://creativecommons.org/ns#"
   xmlns:rdf="http://www.w3.org/1999/02/22-rdf-syntax-ns#"
   xmlns:svg="http://www.w3.org/2000/svg"
   xmlns="http://www.w3.org/2000/svg"
   xmlns:sodipodi="http://sodipodi.sourceforge.net/DTD/sodipodi-0.dtd"
   xmlns:inkscape="http://www.inkscape.org/namespaces/inkscape"
   width="27px"
   height="31px"
   viewBox="0 0 27 31"
   version="1.1"
   id="SVGRoot"
   sodipodi:docname="wizard.svg"
   inkscape:version="1.0.2-2 (e86c870879, 2021-01-15)">
  <defs
     id="defs180" />
  <sodipodi:namedview
     id="base"
     pagecolor="#ffffff"
     bordercolor="#666666"
     borderopacity="1.0"
     inkscape:pageopacity="0.0"
     inkscape:pageshadow="2"
     inkscape:zoom="22.627417"
     inkscape:cx="14.425095"
     inkscape:cy="20.566595"
     inkscape:document-units="px"
     inkscape:current-layer="layer1"
     inkscape:document-rotation="0"
     showgrid="false"
     inkscape:window-width="1440"
     inkscape:window-height="837"
     inkscape:window-x="-8"
     inkscape:window-y="-8"
     inkscape:window-maximized="1" />
  <metadata
     id="metadata183">
    <rdf:RDF>
      <cc:Work
         rdf:about="">
        <dc:format>image/svg+xml</dc:format>
        <dc:type
           rdf:resource="http://purl.org/dc/dcmitype/StillImage" />
        <dc:title />
      </cc:Work>
    </rdf:RDF>
  </metadata>
  <g
     inkscape:label="Слой 1"
     inkscape:groupmode="layer"
     id="layer1">
    <path
       style="display:inline;fill:#1c9aa9;fill-opacity:1;stroke-width:0"
       d="m 10.98437,0 4.25,0.76562504 L 17.07812,4.234375 21.65625,6.9843748 17,7.2187498 8.5625,7.0312498 12.875,4.28125 V 1.953125 Z"
       id="path108"
       sodipodi:nodetypes="ccccccccc" />
    <path
       style="display:inline;fill:#1c9aa9;fill-opacity:1;stroke-width:0"
       d="m 3.0541273,29.997022 10.0415187,0.485323 6.201224,-0.888595 0.26563,-9.359375 1.921875,2.40625 2.343745,1.296875 v -9.609375 h -4.48437 v 0.625 l -0.48438,-0.3125 -2.5,-1.828125 L 12.90625,9.5937498 7.5,14.28125 l -1.28125,4.203125 3.855471,4.695312 2.716718,1.399451 0.231574,-0.227673 -0.0664,-9.455543 0.256573,0.214844 1.336201,0.849493 v 2.220757 l -0.29073,-0.160156 -0.06641,0.599417 -0.359793,-0.183594 -0.290497,-0.09151 -0.23928,0.03125 -0.08203,5.743116 -0.376086,0.830652 -2.80153,-1.583062 -2.1026873,-2.274889 -1.6166018,3.668184 -3.7620293,4.866883 z"
       id="path110"
       sodipodi:nodetypes="ccccccccccccccccccccccccccccccccc" />
    <path
       style="display:inline;fill:#f8c306;fill-opacity:1;stroke-width:0"
       d="m 15.03502,9.4526668 2.16551,-0.629767 h 1.94455 l 0.27621,-0.15468 -0.51928,-1.005417 -0.4606,-0.522178 L 17,7.2187548 12.90625,7.1093798 v 0.527344 h 0.51172 v 0.296875 l 0.54687,0.417968 0.26953,-0.167968 0.0781,-0.265625 -0.13671,-0.132813 -0.004,-0.136719 h 0.72503 v 1.644026 z"
       id="path112" />
    <path
       style="display:inline;fill:#f8c306;fill-opacity:1;stroke-width:0"
       d="m 13.20096,14.767016 1.34792,1.193243 v 2.220757 H 13.51562 L 13.41016,17.875 13.03906,14.941406 Z"
       id="path114" />
    <path
       style="display:inline;fill:#f8c306;fill-opacity:1;stroke-width:0"
       d="m 23.82812,14.328125 h 2.26563 v 2.898437 h -2.27344 z"
       id="path116" />
    <path
       style="display:inline;fill:#e70046;fill-opacity:1;stroke-width:0"
       d="m 12.90625,7.3281298 v 2.26562 l 2.91321,2.5567922 3.39191,2.11929 0.41984,-2.231806 0.011,-1.281631 -0.12153,-1.1269522 -0.70711,-0.386699 -0.16909,-0.422432 -1.444,0.0026 -2.16551,0.629767 -0.1381,-0.160204 v -2.058509 l -0.72503,-0.015205 0.004,0.5664065 0.13672,0.132813 -0.0781,0.265625 -0.26954,0.167968 -0.54687,-0.417968 v -0.53125 z"
       id="path122"
       sodipodi:nodetypes="ccccccccccccccccccccc" />
  </g>
  <g
     inkscape:groupmode="layer"
     id="layer2"
     inkscape:label="тени">
    <path
       style="display:inline;fill:#000000;fill-opacity:1;stroke-width:0"
       d="m 19.21137,14.269832 0.13238,0.05829 v 0.625 C 18.37581,14.355936 17.35519,13.530478 16.35937,12.8125 L 12.90625,9.5937498 7.5,14.28125 6.21875,18.484375 7.00391,13.878906 12.90625,9.0549188 15.81946,11.728667 Z"
       id="path128"
       sodipodi:nodetypes="ccccccccccc" />
    <path
       style="opacity:1;fill:#000000;stroke-width:0"
       d="m 19.5625,20.234375 2.04687,2.015625 2.21875,1.21875 v 0.46875 l -2.343745,-1.296875 -1.953125,-1.8125 z"
       id="path1029" />
    <path
       style="display:inline;fill:#000000;fill-opacity:1;stroke-width:0"
       d="m 23.34766,8.2304688 2.03125,1.34375 -0.15235,1.0976562 -0.15234,0.696058 v 3.365937 h 0.99219 v 0.137224 h -1.3086 v 2.160873 h 1.34232 v 0.226496 h -0.99437 v 12.374349 l 0.75752,0.08203 -2.84375,0.328125 -4.57422,0.480468 -7.71094,0.148438 -7.29687,-0.5 L 0,29.718748 l 2.42187,-0.203125 3.53125,-4.921875 1.8125087,-4.234376 2.3828113,2.660157 2.59953,1.348669 0.11048,-0.110485 v -9.490699 h 0.34251 l -0.1619,0.17439 0.3711,2.933594 0.10546,0.306016 h 0.86753 v 0.486136 h -0.50823 l -0.29831,-0.165728 h -0.17678 v 5.844679 L 12.90265,25.141596 9.95269,23.484315 7.975,21.3188 6.52764,24.799092 3.0363,29.51682 l 0.0731,0.07693 9.95312,0.46875 6.23438,-0.46875 0.0195,-0.566406 5.10937,0.648437 0.28125,-0.105469 V 17.286084 h -0.894525 l -2.86e-4,-0.254164 0.769802,-6.71e-4 v -2.296875 h 0.14453 v -3.726563 z"
       id="path124"
       sodipodi:nodetypes="ccccccccccccccccccccccccccccccccccccccccccccccccccccccc" />
    <path
       style="display:inline;opacity:1;fill:#000000;fill-opacity:1;stroke-width:0"
       d="m 12.90625,7.1093748 v 0.5273199 l 1.67817,0.01172 4.31759,0.014369 L 18.44141,7.1406234 17,7.2187498 Z"
       id="path118"
       sodipodi:nodetypes="ccccccc" />
    <path
       style="display:inline;fill:#000000;fill-opacity:1;stroke-width:0"
       d="m 10.98437,0 2.5,1.84375 V 4.359375 L 9.53125,7.0312498 H 8.5625 L 12.875,4.28125 V 1.953125 Z"
       id="path126" />
  </g>
</svg>
